<mxfile host="app.diagrams.net" modified="2021-11-03T09:39:36.026Z" agent="5.0 (Windows NT 10.0; Win64; x64) AppleWebKit/537.36 (KHTML, like Gecko) Chrome/95.0.4638.69 Safari/537.36" etag="daRTBasxj4rQ30kV8QNF" version="15.6.6" type="github" pages="2">
  <diagram id="GBJeokmdrCC2gT9NmFFP" name="Chức năng tổng quan">
    <mxGraphModel dx="1199" dy="611" grid="1" gridSize="10" guides="1" tooltips="1" connect="1" arrows="1" fold="1" page="1" pageScale="1" pageWidth="827" pageHeight="1169" math="0" shadow="0">
      <root>
        <mxCell id="0" />
        <mxCell id="1" parent="0" />
        <mxCell id="E9-ARF6o8f1vIJOu7_sz-8" value="" style="rounded=1;whiteSpace=wrap;html=1;labelBackgroundColor=default;fontSize=14;fontColor=default;strokeColor=default;fillColor=default;arcSize=4;" vertex="1" parent="1">
          <mxGeometry x="450" y="240" width="340" height="250" as="geometry" />
        </mxCell>
        <mxCell id="V0e8xGoyZVRUdur8J4RT-3" style="rounded=0;orthogonalLoop=1;jettySize=auto;html=1;entryX=0;entryY=0.5;entryDx=0;entryDy=0;fontSize=14;fontColor=default;dashed=1;strokeColor=default;labelBackgroundColor=default;spacing=18;fillColor=default;" edge="1" parent="1" source="V0e8xGoyZVRUdur8J4RT-1" target="V0e8xGoyZVRUdur8J4RT-2">
          <mxGeometry relative="1" as="geometry" />
        </mxCell>
        <mxCell id="V0e8xGoyZVRUdur8J4RT-1" value="&lt;font style=&quot;font-size: 14px&quot;&gt;Quản loại sách&lt;br&gt;&lt;/font&gt;" style="ellipse;whiteSpace=wrap;html=1;fillColor=default;strokeColor=default;fontColor=default;labelBackgroundColor=default;spacing=18;" vertex="1" parent="1">
          <mxGeometry x="466" y="410" width="120" height="60" as="geometry" />
        </mxCell>
        <mxCell id="V0e8xGoyZVRUdur8J4RT-2" value="&lt;font style=&quot;font-size: 14px&quot;&gt;Quản lý sách&lt;br&gt;&lt;/font&gt;" style="ellipse;whiteSpace=wrap;html=1;fillColor=default;strokeColor=default;fontColor=default;labelBackgroundColor=default;spacing=18;" vertex="1" parent="1">
          <mxGeometry x="656" y="410" width="120" height="60" as="geometry" />
        </mxCell>
        <mxCell id="V0e8xGoyZVRUdur8J4RT-7" value="&lt;font style=&quot;font-size: 14px&quot;&gt;Quản lý người mượn&lt;br&gt;&lt;/font&gt;" style="ellipse;whiteSpace=wrap;html=1;fillColor=default;strokeColor=default;fontColor=default;labelBackgroundColor=default;spacing=18;" vertex="1" parent="1">
          <mxGeometry x="466" y="260" width="120" height="60" as="geometry" />
        </mxCell>
        <mxCell id="V0e8xGoyZVRUdur8J4RT-9" value="&lt;font style=&quot;font-size: 14px&quot;&gt;Quản lý phiếu mượn&lt;br&gt;&lt;/font&gt;" style="ellipse;whiteSpace=wrap;html=1;fillColor=default;strokeColor=default;fontColor=default;labelBackgroundColor=default;spacing=18;" vertex="1" parent="1">
          <mxGeometry x="560" y="335" width="120" height="60" as="geometry" />
        </mxCell>
        <mxCell id="V0e8xGoyZVRUdur8J4RT-11" value="&lt;font style=&quot;font-size: 14px&quot;&gt;Quản lý nhân viên&lt;br&gt;&lt;/font&gt;" style="ellipse;whiteSpace=wrap;html=1;fillColor=default;strokeColor=default;fontColor=default;labelBackgroundColor=default;spacing=18;" vertex="1" parent="1">
          <mxGeometry x="294" y="430" width="120" height="60" as="geometry" />
        </mxCell>
        <mxCell id="V0e8xGoyZVRUdur8J4RT-14" value="&lt;font style=&quot;font-size: 14px&quot;&gt;Đăng nhập&lt;br&gt;&lt;/font&gt;" style="ellipse;whiteSpace=wrap;html=1;fillColor=default;strokeColor=default;fontColor=default;labelBackgroundColor=default;spacing=18;" vertex="1" parent="1">
          <mxGeometry x="656" y="260" width="120" height="60" as="geometry" />
        </mxCell>
        <mxCell id="V0e8xGoyZVRUdur8J4RT-21" style="edgeStyle=none;rounded=0;orthogonalLoop=1;jettySize=auto;html=1;exitX=1;exitY=0.3333333333333333;exitDx=0;exitDy=0;exitPerimeter=0;labelBackgroundColor=default;fontSize=14;fontColor=default;strokeColor=default;fillColor=default;" edge="1" parent="1" source="V0e8xGoyZVRUdur8J4RT-15" target="V0e8xGoyZVRUdur8J4RT-11">
          <mxGeometry relative="1" as="geometry" />
        </mxCell>
        <mxCell id="V0e8xGoyZVRUdur8J4RT-22" style="edgeStyle=orthogonalEdgeStyle;rounded=0;orthogonalLoop=1;jettySize=auto;html=1;entryX=0;entryY=0.3333333333333333;entryDx=0;entryDy=0;entryPerimeter=0;labelBackgroundColor=default;fontSize=14;fontColor=default;strokeColor=default;fillColor=default;exitX=0;exitY=0.3333333333333333;exitDx=0;exitDy=0;exitPerimeter=0;dashed=1;" edge="1" parent="1" source="V0e8xGoyZVRUdur8J4RT-15" target="V0e8xGoyZVRUdur8J4RT-16">
          <mxGeometry relative="1" as="geometry">
            <Array as="points">
              <mxPoint x="150" y="413" />
              <mxPoint x="150" y="583" />
            </Array>
          </mxGeometry>
        </mxCell>
        <mxCell id="V0e8xGoyZVRUdur8J4RT-15" value="Thầy&lt;br&gt;Hiệu trưởng" style="shape=umlActor;verticalLabelPosition=bottom;verticalAlign=top;html=1;outlineConnect=0;labelBackgroundColor=default;fontSize=14;strokeColor=#82b366;fillColor=#d5e8d4;fontColor=default;" vertex="1" parent="1">
          <mxGeometry x="180" y="380" width="50" height="100" as="geometry" />
        </mxCell>
        <mxCell id="tE_Ta2a3HhB0j0G_0Sxn-4" style="edgeStyle=orthogonalEdgeStyle;rounded=0;orthogonalLoop=1;jettySize=auto;html=1;exitX=1;exitY=0.3333333333333333;exitDx=0;exitDy=0;exitPerimeter=0;entryX=0.5;entryY=1;entryDx=0;entryDy=0;labelBackgroundColor=default;fontSize=14;fontColor=default;strokeColor=default;fillColor=default;" edge="1" parent="1" source="V0e8xGoyZVRUdur8J4RT-16" target="E9-ARF6o8f1vIJOu7_sz-8">
          <mxGeometry relative="1" as="geometry" />
        </mxCell>
        <mxCell id="V0e8xGoyZVRUdur8J4RT-16" value="Cô thư viện&lt;br&gt;xinh đẹp" style="shape=umlActor;verticalLabelPosition=bottom;verticalAlign=top;html=1;outlineConnect=0;labelBackgroundColor=default;fontSize=14;strokeColor=#d79b00;fillColor=#ffe6cc;fontColor=default;" vertex="1" parent="1">
          <mxGeometry x="180" y="550" width="50" height="100" as="geometry" />
        </mxCell>
        <mxCell id="tE_Ta2a3HhB0j0G_0Sxn-2" style="edgeStyle=none;rounded=0;orthogonalLoop=1;jettySize=auto;html=1;exitX=1;exitY=0.3333333333333333;exitDx=0;exitDy=0;exitPerimeter=0;entryX=0;entryY=0.5;entryDx=0;entryDy=0;labelBackgroundColor=default;fontSize=14;fontColor=default;strokeColor=default;fillColor=default;" edge="1" parent="1" source="E9-ARF6o8f1vIJOu7_sz-10" target="E9-ARF6o8f1vIJOu7_sz-13">
          <mxGeometry relative="1" as="geometry" />
        </mxCell>
        <mxCell id="tE_Ta2a3HhB0j0G_0Sxn-3" style="edgeStyle=none;rounded=0;orthogonalLoop=1;jettySize=auto;html=1;exitX=1;exitY=0.3333333333333333;exitDx=0;exitDy=0;exitPerimeter=0;entryX=0;entryY=0.5;entryDx=0;entryDy=0;labelBackgroundColor=default;fontSize=14;fontColor=default;strokeColor=default;fillColor=default;" edge="1" parent="1" source="E9-ARF6o8f1vIJOu7_sz-10" target="E9-ARF6o8f1vIJOu7_sz-11">
          <mxGeometry relative="1" as="geometry" />
        </mxCell>
        <mxCell id="E9-ARF6o8f1vIJOu7_sz-10" value="Người mượn" style="shape=umlActor;verticalLabelPosition=bottom;verticalAlign=top;html=1;outlineConnect=0;labelBackgroundColor=default;fontSize=14;strokeColor=#6c8ebf;fillColor=#dae8fc;fontColor=default;" vertex="1" parent="1">
          <mxGeometry x="180" y="235" width="50" height="100" as="geometry" />
        </mxCell>
        <mxCell id="E9-ARF6o8f1vIJOu7_sz-11" value="&lt;font style=&quot;font-size: 14px&quot;&gt;Tìm kiếm&lt;br&gt;&lt;/font&gt;" style="ellipse;whiteSpace=wrap;html=1;fillColor=default;strokeColor=default;fontColor=default;labelBackgroundColor=default;spacing=18;" vertex="1" parent="1">
          <mxGeometry x="294" y="330" width="120" height="60" as="geometry" />
        </mxCell>
        <mxCell id="E9-ARF6o8f1vIJOu7_sz-13" value="&lt;font style=&quot;font-size: 14px&quot;&gt;Xem lịch sử mượn&lt;br&gt;&lt;/font&gt;" style="ellipse;whiteSpace=wrap;html=1;fillColor=default;strokeColor=default;fontColor=default;labelBackgroundColor=default;spacing=18;" vertex="1" parent="1">
          <mxGeometry x="294" y="240" width="120" height="60" as="geometry" />
        </mxCell>
      </root>
    </mxGraphModel>
  </diagram>
  <diagram id="-gtvZz-4FizqIAPCJomf" name="Quản lý nhân viên">
    <mxGraphModel dx="1019" dy="519" grid="1" gridSize="10" guides="1" tooltips="1" connect="1" arrows="1" fold="1" page="1" pageScale="1" pageWidth="827" pageHeight="1169" math="0" shadow="0">
      <root>
        <mxCell id="Ks27z-4FAGLyfxJuws84-0" />
        <mxCell id="Ks27z-4FAGLyfxJuws84-1" parent="Ks27z-4FAGLyfxJuws84-0" />
      </root>
    </mxGraphModel>
  </diagram>
</mxfile>
